HIERARCHY
ROOT hip
{
  OFFSET 0 0 0
  CHANNELS 6 Xposition Yposition Zposition Zrotation Yrotation Xrotation
  JOINT abdomen
  {
    OFFSET 0 20.6881 -0.73152
    CHANNELS 3 Zrotation Xrotation Yrotation
    JOINT chest
    {
      OFFSET 0 11.7043 -0.48768
      CHANNELS 3 Zrotation Xrotation Yrotation
      JOINT neck
      {
        OFFSET 0 22.1894 -2.19456
        CHANNELS 3 Zrotation Xrotation Yrotation
        JOINT head
        {
          OFFSET -0.24384 7.07133 1.2192
          CHANNELS 3 Zrotation Xrotation Yrotation
          JOINT leftEye
          {
            OFFSET 4.14528 8.04674 8.04672
            CHANNELS 3 Zrotation Xrotation Yrotation
            End Site
            {
              OFFSET 1 0 0
            }
          }
          JOINT rightEye
          {
            OFFSET -3.6576 8.04674 8.04672
            CHANNELS 3 Zrotation Xrotation Yrotation
            End Site
            {
              OFFSET 1 0 0
            }
          }
        }
      }
      JOINT rCollar
      {
        OFFSET -2.68224 19.2634 -4.8768
        CHANNELS 3 Zrotation Xrotation Yrotation
        JOINT rShldr
        {
          OFFSET -8.77824 -1.95073 1.46304
          CHANNELS 3 Zrotation Xrotation Yrotation
          JOINT rForeArm
          {
            OFFSET -28.1742 -1.7115 0.48768
            CHANNELS 3 Zrotation Xrotation Yrotation
            JOINT rHand
            {
              OFFSET -22.5879 0.773209 7.07136
              CHANNELS 3 Zrotation Xrotation Yrotation
              JOINT rThumb1
              {
                OFFSET -1.2192 -0.487915 3.41376
                CHANNELS 3 Zrotation Xrotation Yrotation
                JOINT rThumb2
                {
                  OFFSET -3.37035 -0.52449 3.41376
                  CHANNELS 3 Zrotation Xrotation Yrotation
                  End Site
                  {
                    OFFSET -1.78271 -1.18214 1.43049
                  }
                }
              }
              JOINT rIndex1
              {
                OFFSET -7.75947 0.938293 5.60832
                CHANNELS 3 Zrotation Xrotation Yrotation
                JOINT rIndex2
                {
                  OFFSET -2.54057 -0.884171 1.56538
                  CHANNELS 3 Zrotation Xrotation Yrotation
                  End Site
                  {
                    OFFSET -1.62519 -0.234802 1.16502
                  }
                }
              }
              JOINT rMid1
              {
                OFFSET -8.24714 1.18213 3.41376
                CHANNELS 3 Zrotation Xrotation Yrotation
                JOINT rMid2
                {
                  OFFSET -3.10165 -0.590103 1.0647
                  CHANNELS 3 Zrotation Xrotation Yrotation
                  End Site
                  {
                    OFFSET -2.48547 -0.328903 0.83742
                  }
                }
              }
              JOINT rRing1
              {
                OFFSET -8.82822 0.546677 1.51678
                CHANNELS 3 Zrotation Xrotation Yrotation
                JOINT rRing2
                {
                  OFFSET -2.60934 -0.819778 -0.0198488
                  CHANNELS 3 Zrotation Xrotation Yrotation
                  End Site
                  {
                    OFFSET -2.33842 -0.294052 0.168128
                  }
                }
              }
              JOINT rPinky1
              {
                OFFSET -8.27202 -0.0477905 -0.4584
                CHANNELS 3 Zrotation Xrotation Yrotation
                JOINT rPinky2
                {
                  OFFSET -1.82734 -0.647385 -0.700984
                  CHANNELS 3 Zrotation Xrotation Yrotation
                  End Site
                  {
                    OFFSET -1.69225 -0.51767 -0.607171
                  }
                }
              }
            }
          }
        }
      }
      JOINT lCollar
      {
        OFFSET 2.68224 19.2634 -4.8768
        CHANNELS 3 Zrotation Xrotation Yrotation
        JOINT lShldr
        {
          OFFSET 8.77824 -1.95073 1.46304
          CHANNELS 3 Zrotation Xrotation Yrotation
          JOINT lForeArm
          {
            OFFSET 28.1742 -1.7115 0.48768
            CHANNELS 3 Zrotation Xrotation Yrotation
            JOINT lHand
            {
              OFFSET 22.5879 0.773209 7.07136
              CHANNELS 3 Zrotation Xrotation Yrotation
              JOINT lThumb1
              {
                OFFSET 1.2192 -0.487915 3.41376
                CHANNELS 3 Zrotation Xrotation Yrotation
                JOINT lThumb2
                {
                  OFFSET 3.37035 -0.52449 3.41376
                  CHANNELS 3 Zrotation Xrotation Yrotation
                  End Site
                  {
                    OFFSET 1.78271 -1.18214 1.43049
                  }
                }
              }
              JOINT lIndex1
              {
                OFFSET 7.75947 0.938293 5.60832
                CHANNELS 3 Zrotation Xrotation Yrotation
                JOINT lIndex2
                {
                  OFFSET 2.54057 -0.884171 1.56538
                  CHANNELS 3 Zrotation Xrotation Yrotation
                  End Site
                  {
                    OFFSET 1.62519 -0.234802 1.16502
                  }
                }
              }
              JOINT lMid1
              {
                OFFSET 8.24714 1.18213 3.41376
                CHANNELS 3 Zrotation Xrotation Yrotation
                JOINT lMid2
                {
                  OFFSET 3.10165 -0.590103 1.0647
                  CHANNELS 3 Zrotation Xrotation Yrotation
                  End Site
                  {
                    OFFSET 2.48547 -0.328903 0.83742
                  }
                }
              }
              JOINT lRing1
              {
                OFFSET 8.82822 0.546677 1.51678
                CHANNELS 3 Zrotation Xrotation Yrotation
                JOINT lRing2
                {
                  OFFSET 2.60934 -0.819778 -0.0198488
                  CHANNELS 3 Zrotation Xrotation Yrotation
                  End Site
                  {
                    OFFSET 2.33842 -0.294052 0.168128
                  }
                }
              }
              JOINT lPinky1
              {
                OFFSET 8.27202 -0.0477905 -0.4584
                CHANNELS 3 Zrotation Xrotation Yrotation
                JOINT lPinky2
                {
                  OFFSET 1.82734 -0.647385 -0.700984
                  CHANNELS 3 Zrotation Xrotation Yrotation
                  End Site
                  {
                    OFFSET 1.69225 -0.51767 -0.607171
                  }
                }
              }
            }
          }
        }
      }
    }
  }
  JOINT rButtock
  {
    OFFSET -8.77824 4.35084 1.2192
    CHANNELS 3 Zrotation Xrotation Yrotation
    JOINT rThigh
    {
      OFFSET 0 -1.70687 -2.19456
      CHANNELS 3 Zrotation Xrotation Yrotation
      JOINT rShin
      {
        OFFSET 0 -36.8199 0.73152
        CHANNELS 3 Zrotation Xrotation Yrotation
        JOINT rFoot
        {
          OFFSET 0.73152 -45.1104 -5.12064
          CHANNELS 3 Zrotation Xrotation Yrotation
          End Site
          {
            OFFSET -1.1221 -3.69964 12.103
          }
        }
      }
    }
  }
  JOINT lButtock
  {
    OFFSET 8.77824 4.35084 1.2192
    CHANNELS 3 Zrotation Xrotation Yrotation
    JOINT lThigh
    {
      OFFSET 0 -1.70687 -2.19456
      CHANNELS 3 Zrotation Xrotation Yrotation
      JOINT lShin
      {
        OFFSET 0 -36.8199 0.73152
        CHANNELS 3 Zrotation Xrotation Yrotation
        JOINT lFoot
        {
          OFFSET -0.73152 -45.1104 -5.12064
          CHANNELS 3 Zrotation Xrotation Yrotation
          End Site
          {
            OFFSET 1.1221 -3.69964 12.103
          }
        }
      }
    }
  }
}
MOTION
Frames:	9
Frame Time:	0.00833333
38.1765 84.3737 -152.813 0.0 0.0 0.0 -1.03702 -0.00414456 -0.0285993 -0.285906 -0.00382843 -0.0495302 7.42091e-15 0.0 -1.2424e-17 2.22328e-14 3.18055e-15 -3.72721e-17 -0.0 0.0 0.0 -0.0 0.0 0.0 3.82544e-15 6.21202e-18 9.93923e-17 8.10913e-14 4.72114e-16 1.19271e-15 1.34368e-12 -3.97569e-13 -9.54166e-15 1.53974e-11 4.27785e-13 0.0 3.63092e-11 5.84544e-14 -2.22639e-14 6.26935e-11 1.01778e-13 -4.45278e-14 3.63156e-11 6.24184e-14 -3.18055e-14 7.73091 5.47488 0.417314 3.63085e-11 5.83433e-14 -1.59028e-14 2.90554 0.965183 0.102902 3.63211e-11 5.86415e-14 -2.14687e-14 10.2786 0.731801 0.0259123 3.63046e-11 5.88403e-14 -2.22639e-14 2.22167 -0.733487 -0.20892 3.82802e-15 6.98852e-18 -9.93923e-17 7.59971e-14 5.71506e-16 -7.95139e-16 1.34781e-12 4.07111e-13 -2.8625e-14 1.53794e-11 -3.77591e-13 1.59028e-14 3.62867e-11 5.55273e-14 -3.18055e-14 6.26716e-11 8.90555e-14 -3.97569e-14 3.62798e-11 5.88403e-14 -1.59028e-14 -7.73091 5.47488 -0.417314 3.62858e-11 5.61567e-14 -2.22639e-14 -2.90554 0.965183 -0.102902 3.62759e-11 5.55603e-14 -2.14687e-14 -10.2786 0.731801 -0.0259123 3.62862e-11 5.64548e-14 -1.90833e-14 -2.22167 -0.733487 0.20892 -2.03217e-16 0.0 -3.88251e-19 -0.27308 -1.9197 -0.0125364 -0.00938329 -2.07854 -0.0775652 -0.513008 3.99654 0.140422 2.03217e-16 0.0 3.88251e-19 -1.30518 -5.55691 0.114037 -0.000202794 4.50978 -0.0271042 0.527627 1.04557 -0.0815848
39.9607 82.8015 -157.428 2.3642 38.9511 7.9516 -1.97353 2.21934 -0.8489 0.253978 -1.6959 -0.285335 -0.0429909 -0.754201 -1.01407 0.763958 7.11641 -1.90206 -0.0 0.0 0.0 -0.0 0.0 0.0 3.66356e-14 -6.6228e-14 -1.52048e-13 20.2682 7.57617 2.31167 -7.13441 -4.15223 9.97814 0.0434485 -4.62652 -0.642581 5.8086e-10 2.89171e-10 -4.80147e-10 1.01253e-09 4.82288e-10 -8.24937e-10 5.80863e-10 2.89177e-10 -4.80159e-10 7.73091 5.47488 0.417314 5.80858e-10 2.89172e-10 -4.80144e-10 2.90554 0.965183 0.102902 5.8087e-10 2.89173e-10 -4.80146e-10 10.2786 0.731801 0.0259123 5.80855e-10 2.89173e-10 -4.80146e-10 2.22167 -0.733487 -0.20892 3.65949e-14 -6.62279e-14 -1.52242e-13 -22.186 13.9351 -1.47267 8.40342 -5.30105 -11.1219 -0.127033 -7.92027 1.07509 3.67419e-10 1.35685e-10 3.54683e-10 6.24468e-10 2.13994e-10 6.21629e-10 3.67412e-10 1.35687e-10 3.54696e-10 -7.73091 5.47488 -0.417314 3.67419e-10 1.35685e-10 3.54689e-10 -2.90554 0.965183 -0.102902 3.6741e-10 1.35685e-10 3.54688e-10 -10.2786 0.731801 -0.0259123 3.67419e-10 1.35686e-10 3.54688e-10 -2.22167 -0.733487 0.20892 -2.03217e-16 0.0 -3.88251e-19 -0.0896337 -9.74889 -0.84279 0.0255741 9.3618 0.111806 -0.462631 -3.74124 0.224435 2.03217e-16 0.0 3.88251e-19 -0.829356 -6.55084 -0.0908333 -0.116957 13.8717 -0.320101 1.09331 -9.76387 3.10926
39.9527 82.7514 -156.022 2.2076 38.6771 7.6988 -2.8957 4.58299 -1.7164 0.817103 -3.48901 -0.533732 -0.1219 -1.55478 -2.09457 2.11074 14.6111 -4.02848 -0.0 0.0 0.0 -0.0 0.0 0.0 7.26611e-14 -1.38451e-13 -3.19751e-13 40.9912 15.5115 4.88874 -13.1233 -8.11993 20.6876 -0.0248991 -9.5182 -1.33634 1.19187e-09 5.95714e-10 -1.01076e-09 2.0781e-09 9.92607e-10 -1.73647e-09 1.19186e-09 5.95722e-10 -1.01078e-09 7.73091 5.47488 0.417314 1.19186e-09 5.95717e-10 -1.01076e-09 2.90554 0.965183 0.102902 1.19187e-09 5.95718e-10 -1.01076e-09 10.2786 0.731801 0.0259123 1.19186e-09 5.95718e-10 -1.01076e-09 2.22167 -0.733487 -0.20892 7.25745e-14 -1.38451e-13 -3.19938e-13 -44.7559 28.6581 -3.39619 15.0714 -10.2279 -23.1616 0.0741098 -16.2855 2.28236 7.35042e-10 2.91748e-10 7.41244e-10 1.24837e-09 4.61225e-10 1.29927e-09 7.35034e-10 2.91748e-10 7.41254e-10 -7.73091 5.47488 -0.417314 7.35042e-10 2.91747e-10 7.41246e-10 -2.90554 0.965183 -0.102902 7.35034e-10 2.91747e-10 7.41244e-10 -10.2786 0.731801 -0.0259123 7.35043e-10 2.91749e-10 7.41243e-10 -2.22167 -0.733487 0.20892 -2.03217e-16 0.0 -3.88251e-19 -0.159406 -18.0381 -1.78202 -0.0242279 21.4533 0.332143 -0.388311 -11.9271 0.302443 2.03217e-16 0.0 3.88251e-19 -0.337514 -7.63169 -0.316934 -0.126972 23.7797 -0.66739 3.08293 -21.0768 6.85531
39.929 82.698 -154.617 1.9117 38.1589 7.3582 -3.65449 6.66073 -2.50451 1.29182 -5.07968 -0.759554 -0.209075 -2.25977 -3.04431 3.79454 21.2516 -6.07685 -0.0 0.0 0.0 -0.0 0.0 0.0 1.02256e-13 -1.98697e-13 -4.56342e-13 58.8464 22.5742 7.44794 -17.219 -10.9465 30.4664 -0.188873 -13.8725 -1.97921 1.66996e-09 8.67397e-10 -1.4404e-09 2.9122e-09 1.44666e-09 -2.47472e-09 1.66996e-09 8.67406e-10 -1.44041e-09 7.73091 5.47488 0.417314 1.66996e-09 8.67401e-10 -1.4404e-09 2.90554 0.965183 0.102902 1.66997e-09 8.67402e-10 -1.4404e-09 10.2786 0.731801 0.0259123 1.66996e-09 8.67403e-10 -1.44039e-09 2.22167 -0.733487 -0.20892 1.02129e-13 -1.98698e-13 -4.56527e-13 -63.795 41.6752 -5.74507 19.2845 -13.5017 -34.2943 0.580024 -23.7257 3.48978 1.02968e-09 4.06945e-10 1.06411e-09 1.74806e-09 6.41804e-10 1.86497e-09 1.02968e-09 4.06944e-10 1.06412e-09 -7.73091 5.47488 -0.417314 1.02968e-09 4.06943e-10 1.06411e-09 -2.90554 0.965183 -0.102902 1.02968e-09 4.06944e-10 1.06411e-09 -10.2786 0.731801 -0.0259123 1.02969e-09 4.06946e-10 1.0641e-09 -2.22167 -0.733487 0.20892 -2.03217e-16 0.0 -3.88251e-19 -0.466765 -25.3851 -2.73062 -0.16211 32.2412 0.574576 -0.288849 -19.2164 0.414824 2.03217e-16 0.0 3.88251e-19 0.100747 -8.53837 -0.503302 -0.0148897 32.592 -1.04242 6.31666 -30.9606 10.9278
39.9079 82.6414 -153.221 1.6499 37.7645 7.0326 -4.14144 8.02899 -3.07957 1.57488 -6.16456 -0.926495 -0.258714 -2.72862 -3.66506 5.21158 25.8529 -7.57215 -0.0 0.0 0.0 -0.0 0.0 0.0 1.15773e-13 -2.29001e-13 -5.1515e-13 70.932 27.5983 9.49018 -19.4711 -12.3609 37.4109 -0.363166 -16.89 -2.44571 1.81578e-09 1.05193e-09 -1.61757e-09 3.1676e-09 1.76004e-09 -2.77977e-09 1.81577e-09 1.05194e-09 -1.61759e-09 7.73091 5.47488 0.417314 1.81578e-09 1.05193e-09 -1.61758e-09 2.90554 0.965183 0.102902 1.81579e-09 1.05194e-09 -1.61757e-09 10.2786 0.731801 0.0259123 1.81578e-09 1.05194e-09 -1.61757e-09 2.22167 -0.733487 -0.20892 1.1562e-13 -2.29001e-13 -5.15349e-13 -76.2393 50.5638 -7.87132 21.4308 -14.9252 -42.2777 1.14597 -28.8868 4.4472 1.14187e-09 4.19978e-10 1.22774e-09 1.93724e-09 6.55751e-10 2.15078e-09 1.14187e-09 4.19976e-10 1.22775e-09 -7.73091 5.47488 -0.417314 1.14188e-09 4.19975e-10 1.22774e-09 -2.90554 0.965183 -0.102902 1.14187e-09 4.19976e-10 1.22773e-09 -10.2786 0.731801 -0.0259123 1.14188e-09 4.19979e-10 1.22773e-09 -2.22167 -0.733487 0.20892 -2.03217e-16 0.0 -3.88251e-19 -0.820102 -30.3977 -3.49103 -0.33021 39.7715 0.790947 -0.155898 -24.2645 0.600124 2.03217e-16 0.0 3.88251e-19 0.422632 -9.00991 -0.587849 0.150452 38.6683 -1.36369 9.6198 -37.6726 14.4517
39.929 82.6482 -151.806 1.4446 37.4195 6.7338 -4.30231 8.40098 -3.35014 1.58376 -6.53646 -1.01146 -0.224365 -2.86207 -3.82155 5.69537 27.6707 -8.01686 -0.0 0.0 0.0 -0.0 0.0 0.0 1.04826e-13 -2.16958e-13 -4.65282e-13 75.687 29.8854 10.4375 -20.2476 -12.7793 40.1763 -0.44417 -18.0443 -2.62996 1.47321e-09 1.09828e-09 -1.41483e-09 2.57229e-09 1.84924e-09 -2.43273e-09 1.4732e-09 1.0983e-09 -1.41485e-09 7.73091 5.47488 0.417314 1.47321e-09 1.09829e-09 -1.41483e-09 2.90554 0.965183 0.102902 1.47321e-09 1.09829e-09 -1.41483e-09 10.2786 0.731801 0.0259123 1.47321e-09 1.09829e-09 -1.41482e-09 2.22167 -0.733487 -0.20892 1.04665e-13 -2.16954e-13 -4.65526e-13 -81.2418 53.8098 -8.2219 22.1604 -15.297 -45.5235 1.41945 -30.8713 4.85108 9.97655e-10 3.03093e-10 1.15251e-09 1.69042e-09 4.59883e-10 2.01711e-09 9.97648e-10 3.03091e-10 1.15252e-09 -7.73091 5.47488 -0.417314 9.97656e-10 3.0309e-10 1.15251e-09 -2.90554 0.965183 -0.102902 9.97649e-10 3.03091e-10 1.1525e-09 -10.2786 0.731801 -0.0259123 9.97658e-10 3.03093e-10 1.1525e-09 -2.22167 -0.733487 0.20892 -2.03217e-16 0.0 -3.88251e-19 -0.944081 -32.1502 -3.83131 -0.418381 42.7413 0.889367 0.00247937 -26.1774 0.874915 2.03217e-16 0.0 3.88251e-19 0.589463 -8.85627 -0.529364 0.235979 40.9038 -1.50534 11.1792 -40.313 15.9903
39.9691 82.6156 -150.421 1.3274 37.0275 6.511 -4.24516 8.0628 -3.40031 1.40104 -6.3994 -1.03727 -0.12567 -2.7567 -3.64622 5.37559 27.5194 -7.63003 -0.0 0.0 0.0 -0.0 0.0 0.0 7.64974e-14 -1.74688e-13 -3.37776e-13 75.4155 30.2551 10.4742 -20.1838 -12.7609 39.9195 -0.43241 -17.869 -2.60197 7.82891e-10 1.04671e-09 -9.41974e-10 1.37128e-09 1.77961e-09 -1.62207e-09 7.82882e-10 1.04673e-09 -9.41993e-10 7.73091 5.47488 0.417314 7.82885e-10 1.04673e-09 -9.41975e-10 2.90554 0.965183 0.102902 7.82895e-10 1.04672e-09 -9.41969e-10 10.2786 0.731801 0.0259123 7.8289e-10 1.04672e-09 -9.41959e-10 2.22167 -0.733487 -0.20892 7.63419e-14 -1.74678e-13 -3.38089e-13 -81.4597 53.0516 -6.81545 22.1472 -15.3555 -45.3511 1.38178 -30.5957 4.79444 6.70331e-10 9.27846e-11 9.07421e-10 1.13224e-09 1.13031e-10 1.58513e-09 6.70327e-10 9.27841e-11 9.0743e-10 -7.73091 5.47488 -0.417314 6.70331e-10 9.27824e-11 9.0742e-10 -2.90554 0.965183 -0.102902 6.70325e-10 9.27831e-11 9.07414e-10 -10.2786 0.731801 -0.0259123 6.70335e-10 9.27853e-11 9.07406e-10 -2.22167 -0.733487 0.20892 -2.03217e-16 0.0 -3.88251e-19 -0.823826 -31.5795 -3.81893 -0.40983 42.4541 0.872346 0.15722 -25.8504 1.20268 2.03217e-16 0.0 3.88251e-19 0.643492 -8.25678 -0.369009 0.218607 40.3975 -1.48341 10.94 -40.1642 15.6906
40.1578 82.6003 -149.005 1.4678 36.8711 6.3776 -4.11208 7.45127 -3.35632 1.17245 -6.06698 -1.03597 -0.0124721 -2.5664 -3.34187 4.7421 26.5779 -6.9199 -0.0 0.0 0.0 -0.0 0.0 0.0 4.43468e-14 -1.21013e-13 -1.78866e-13 73.1242 29.8515 10.1357 -19.7771 -12.5591 38.4311 -0.383785 -17.1564 -2.48847 -9.39565e-12 9.81832e-10 -4.03445e-10 -7.18167e-12 1.69004e-09 -6.98943e-10 -9.40459e-12 9.81856e-10 -4.03463e-10 7.73091 5.47488 0.417314 -9.40203e-12 9.81851e-10 -4.03442e-10 2.90554 0.965183 0.102902 -9.39321e-12 9.81843e-10 -4.03437e-10 10.2786 0.731801 0.0259123 -9.3951e-12 9.81845e-10 -4.03425e-10 2.22167 -0.733487 -0.20892 4.4203e-14 -1.20997e-13 -1.79241e-13 -79.5698 50.6557 -4.88877 21.8454 -15.3002 -43.8047 1.2229 -29.4347 4.55814 2.71332e-10 -1.75872e-10 6.19879e-10 4.51551e-10 -3.31768e-10 1.07806e-09 2.7133e-10 -1.75871e-10 6.19891e-10 -7.73091 5.47488 -0.417314 2.71332e-10 -1.75873e-10 6.1988e-10 -2.90554 0.965183 -0.102902 2.71325e-10 -1.75873e-10 6.19874e-10 -10.2786 0.731801 -0.0259123 2.71337e-10 -1.75871e-10 6.19865e-10 -2.22167 -0.733487 0.20892 -2.03217e-16 0.0 -3.88251e-19 -0.603102 -30.0922 -3.65237 -0.363164 40.8658 0.809094 0.292109 -24.6227 1.54484 2.03217e-16 0.0 3.88251e-19 0.645577 -7.50467 -0.167663 0.162379 38.8155 -1.3978 9.99102 -38.8666 14.6722
40.2349 82.5772 -147.614 1.483 36.5442 6.1843 -4.04466 7.00312 -3.34407 1.04304 -5.85276 -1.03962 0.0678315 -2.4453 -3.11114 4.26541 26.0308 -6.38746 -0.0 0.0 0.0 -0.0 0.0 0.0 2.1934e-14 -7.47527e-14 -3.47873e-14 71.7747 29.8114 9.98903 -19.5106 -12.4084 37.5046 -0.354694 -16.6989 -2.41638 -6.57872e-10 9.8827e-10 -3.67672e-12 -1.13481e-09 1.71942e-09 -1.4458e-11 -6.5788e-10 9.88295e-10 -3.69262e-12 7.73091 5.47488 0.417314 -6.57879e-10 9.88291e-10 -3.67036e-12 2.90554 0.965183 0.102902 -6.5787e-10 9.88281e-10 -3.66718e-12 10.2786 0.731801 0.0259123 -6.57871e-10 9.88283e-10 -3.65446e-12 2.22167 -0.733487 -0.20892 2.18e-14 -7.47343e-14 -3.51849e-14 -78.5903 49.0389 -3.40304 21.6799 -15.2839 -42.933 1.13501 -28.763 4.42446 -8.79121e-11 -4.67801e-10 4.17289e-10 -1.62792e-10 -8.21474e-10 7.19123e-10 -8.79133e-11 -4.67799e-10 4.17301e-10 -7.73091 5.47488 -0.417314 -8.79121e-11 -4.67802e-10 4.17292e-10 -2.90554 0.965183 -0.102902 -8.79194e-11 -4.67802e-10 4.17286e-10 -10.2786 0.731801 -0.0259123 -8.79062e-11 -4.67801e-10 4.17276e-10 -2.22167 -0.733487 0.20892 -2.03217e-16 0.0 -3.88251e-19 -0.427495 -29.094 -3.52942 -0.338308 39.9322 0.770035 0.423981 -23.8336 1.87713 2.03217e-16 0.0 3.88251e-19 0.661912 -6.89333 0.014686 0.130667 37.8238 -1.34763 9.44403 -38.0604 14.0778
